<svg xmlns="http://www.w3.org/2000/svg"  viewBox="0 0 50 50" width="25px" height="25px"><path d="M 25 8 C 15.611 8 8 15.611 8 25 C 8 34.389 15.611 42 25 42 C 34.389 42 42 34.389 42 25 C 42 15.611 34.389 8 25 8 z M 25 9 C 33.837 9 41 16.163 41 25 C 41 33.837 33.837 41 25 41 C 16.163 41 9 33.837 9 25 C 9 16.163 16.163 9 25 9 z M 25 17 C 24.724 17 24.5 17.224 24.5 17.5 L 24.5 24.5 L 17.5 24.5 C 17.224 24.5 17 24.724 17 25 C 17 25.276 17.224 25.5 17.5 25.5 L 24.5 25.5 L 24.5 32.5 C 24.5 32.776 24.724 33 25 33 C 25.276 33 25.5 32.776 25.5 32.5 L 25.5 25.5 L 32.5 25.5 C 32.776 25.5 33 25.276 33 25 C 33 24.724 32.776 24.5 32.5 24.5 L 25.5 24.5 L 25.5 17.5 C 25.5 17.224 25.276 17 25 17 z"/></svg>